<?xml version="1.0" encoding="UTF-8" standalone="no"?><!DOCTYPE svg PUBLIC "-//W3C//DTD SVG 1.1//EN" "http://www.w3.org/Graphics/SVG/1.1/DTD/svg11.dtd"><svg width="100%" height="100%" viewBox="0 0 3229 891" version="1.1" xmlns="http://www.w3.org/2000/svg" xmlns:xlink="http://www.w3.org/1999/xlink" xml:space="preserve" xmlns:serif="http://www.serif.com/" style="fill-rule:evenodd;clip-rule:evenodd;stroke-linejoin:round;stroke-miterlimit:2;"><rect id="Artboard1" x="0" y="0" width="3228.16" height="890.207" style="fill:none;"/><g id="graphics"><path d="M981.531,597.255c-19.792,0 -37.696,-2.962 -53.711,-8.886c-16.016,-5.925 -29.72,-14.584 -41.114,-25.977c-11.393,-11.393 -20.182,-25.39 -26.367,-41.992c-6.185,-16.602 -9.277,-35.514 -9.277,-56.738c-0,-21.875 3.548,-40.918 10.644,-57.129c7.097,-16.211 16.537,-29.72 28.321,-40.528c11.784,-10.807 25.325,-18.88 40.625,-24.218c15.299,-5.339 31.152,-8.008 47.558,-8.008c16.537,-0 31.706,2.148 45.508,6.445c13.802,4.297 25.619,10.156 35.449,17.578c9.831,7.422 17.481,16.146 22.95,26.172c5.468,10.026 8.203,20.834 8.203,32.422c-0,9.245 -1.498,17.123 -4.492,23.633c-2.995,6.51 -7.129,11.816 -12.403,15.918c-5.273,4.101 -11.621,7.129 -19.043,9.082c-7.422,1.953 -15.495,2.93 -24.219,2.93c-5.468,-0 -10.905,-0.749 -16.308,-2.246c-5.404,-1.498 -10.384,-3.353 -14.942,-5.567c-4.557,-2.213 -8.431,-4.59 -11.621,-7.129c-3.19,-2.539 -5.241,-4.785 -6.152,-6.738c0,-3.385 0.033,-7.292 0.098,-11.719c0.065,-4.427 0.228,-8.919 0.488,-13.476c-0.391,-0.131 -0.879,-0.196 -1.465,-0.196l-1.269,0c-1.954,0 -3.484,0.554 -4.59,1.66c-1.107,1.107 -1.986,3.06 -2.637,5.86c-0.651,2.799 -1.074,6.608 -1.27,11.426c-0.195,4.817 -0.292,10.937 -0.292,18.359c-0,10.026 0.227,18.587 0.683,25.684c0.456,7.096 1.074,12.89 1.856,17.382c0.781,4.493 1.757,7.78 2.929,9.864c1.172,2.083 2.474,3.125 3.907,3.125c1.302,-0 2.473,-0.326 3.515,-0.977l0,-17.773c4.557,-3.125 10.156,-5.925 16.797,-8.399c6.641,-2.474 13.704,-4.59 21.191,-6.347c7.487,-1.758 15.202,-3.125 23.145,-4.102c7.943,-0.977 15.495,-1.465 22.656,-1.465c3.516,3.646 6.738,8.268 9.668,13.867c2.93,5.599 5.469,11.621 7.617,18.067c2.149,6.445 3.874,12.955 5.176,19.531c1.302,6.576 2.018,12.598 2.149,18.066c-2.474,4.818 -6.706,10.254 -12.696,16.309c-5.989,6.055 -13.607,11.784 -22.851,17.188c-9.245,5.403 -20.117,9.928 -32.617,13.574c-12.5,3.646 -26.433,5.468 -41.797,5.468Z" style="fill:#fff;fill-rule:nonzero;"/><path d="M1219.69,598.037c-15.235,-0 -29.525,-2.344 -42.871,-7.032c-13.347,-4.687 -24.935,-11.783 -34.766,-21.289c-9.831,-9.505 -17.611,-21.354 -23.34,-35.546c-5.729,-14.193 -8.594,-30.795 -8.594,-49.805c0,-17.188 2.67,-32.715 8.008,-46.582c5.339,-13.867 12.826,-25.684 22.461,-35.449c9.635,-9.766 21.159,-17.253 34.57,-22.461c13.412,-5.209 28.256,-7.813 44.532,-7.813c16.276,0 31.119,2.8 44.531,8.399c13.411,5.599 24.902,13.444 34.473,23.535c9.57,10.091 16.992,22.135 22.265,36.133c5.274,13.997 7.91,29.329 7.91,45.996c0,17.187 -2.474,32.682 -7.422,46.484c-4.947,13.802 -12.109,25.553 -21.484,35.254c-9.375,9.7 -20.833,17.155 -34.375,22.363c-13.542,5.209 -28.841,7.813 -45.898,7.813Zm-4.493,-80.664c0.912,0.911 2.279,1.367 4.102,1.367c2.474,-0 4.134,-0.749 4.98,-2.246c0.847,-1.498 1.27,-3.939 1.27,-7.324l-0,-27.93c-0,-5.86 -0.098,-10.807 -0.293,-14.844c-0.195,-4.036 -0.618,-7.357 -1.27,-9.961c-0.651,-2.604 -1.464,-4.297 -2.441,-5.078c-0.976,-0.781 -2.116,-1.172 -3.418,-1.172c-1.172,0 -2.116,0.195 -2.832,0.586c-0.716,0.391 -1.335,0.846 -1.855,1.367c0.13,2.084 1.041,9.733 1.171,12.012c0.131,2.279 0.261,4.948 0.391,8.008c0.13,3.06 0.195,6.738 0.195,11.035l0,34.18Z" style="fill:#fff;fill-rule:nonzero;"/><path d="M1355.71,326.162c1.302,-0.782 3.386,-1.888 6.25,-3.321c2.865,-1.432 6.283,-2.832 10.254,-4.199c3.971,-1.367 8.496,-2.539 13.574,-3.515c5.078,-0.977 10.482,-1.465 16.211,-1.465c9.375,-0 17.416,1.041 24.121,3.125c6.706,2.083 12.207,4.98 16.504,8.691c4.297,3.711 7.455,8.171 9.473,13.379c2.018,5.208 3.027,11.003 3.027,17.383l0,137.305c0,8.984 0.977,16.699 2.93,23.144c1.953,6.445 5.664,11.361 11.133,14.746c0.13,1.042 0.195,2.311 0.195,3.809l0,3.418c0,18.88 -4.785,33.073 -14.355,42.578c-9.571,9.505 -22.885,14.258 -39.942,14.258c-7.682,-0 -15.104,-1.107 -22.265,-3.321c-7.162,-2.213 -13.477,-5.924 -18.946,-11.132c-5.469,-5.209 -9.863,-12.045 -13.183,-20.508c-3.321,-8.464 -4.981,-18.946 -4.981,-31.446l0,-202.929Z" style="fill:#fff;fill-rule:nonzero;"/><path d="M1596.99,598.037c-15.234,-0 -29.525,-2.344 -42.871,-7.032c-13.346,-4.687 -24.935,-11.783 -34.766,-21.289c-9.83,-9.505 -17.61,-21.354 -23.339,-35.546c-5.73,-14.193 -8.594,-30.795 -8.594,-49.805c-0,-17.188 2.669,-32.715 8.008,-46.582c5.338,-13.867 12.825,-25.684 22.461,-35.449c9.635,-9.766 21.158,-17.253 34.57,-22.461c13.411,-5.209 28.255,-7.813 44.531,-7.813c16.276,0 31.12,2.8 44.531,8.399c13.412,5.599 24.903,13.444 34.473,23.535c9.57,10.091 16.992,22.135 22.266,36.133c5.273,13.997 7.91,29.329 7.91,45.996c-0,17.187 -2.474,32.682 -7.422,46.484c-4.948,13.802 -12.109,25.553 -21.484,35.254c-9.375,9.7 -20.834,17.155 -34.375,22.363c-13.542,5.209 -28.842,7.813 -45.899,7.813Zm-4.492,-80.664c0.911,0.911 2.279,1.367 4.102,1.367c2.473,-0 4.134,-0.749 4.98,-2.246c0.846,-1.498 1.27,-3.939 1.27,-7.324l-0,-27.93c-0,-5.86 -0.098,-10.807 -0.293,-14.844c-0.196,-4.036 -0.619,-7.357 -1.27,-9.961c-0.651,-2.604 -1.465,-4.297 -2.441,-5.078c-0.977,-0.781 -2.116,-1.172 -3.418,-1.172c-1.172,0 -2.116,0.195 -2.832,0.586c-0.717,0.391 -1.335,0.846 -1.856,1.367c0.13,2.084 1.042,9.733 1.172,12.012c0.13,2.279 0.26,4.948 0.391,8.008c0.13,3.06 0.195,6.738 0.195,11.035l-0,34.18Z" style="fill:#fff;fill-rule:nonzero;"/><path d="M1767.19,378.505c8.073,0 14.812,1.303 20.215,3.907c5.404,2.604 9.668,6.25 12.793,10.937c-1.693,1.823 -3.288,4.037 -4.785,6.641c-1.497,2.604 -2.799,5.176 -3.906,7.715c-1.107,2.539 -1.986,4.948 -2.637,7.226c-0.651,2.279 -0.977,4.069 -0.977,5.371c0,1.563 0.586,2.963 1.758,4.2c1.172,1.237 2.995,1.855 5.469,1.855c2.474,-9.635 5.957,-17.708 10.449,-24.219c4.492,-6.51 9.636,-11.718 15.43,-15.625c5.794,-3.906 12.044,-6.673 18.75,-8.3c6.706,-1.628 13.509,-2.442 20.41,-2.442c5.599,0 10.742,0.358 15.43,1.074c4.687,0.716 8.919,1.66 12.695,2.832c3.776,1.172 7.096,2.507 9.961,4.004c2.865,1.498 5.273,2.963 7.227,4.395c2.083,5.469 3.58,11.263 4.492,17.383c0.911,6.119 1.367,12.109 1.367,17.968c-0,10.547 -0.944,19.336 -2.832,26.368c-1.888,7.031 -3.939,12.825 -6.152,17.382c-2.084,1.042 -4.688,2.084 -7.813,3.125c-3.125,1.042 -6.543,1.953 -10.254,2.735c-3.711,0.781 -7.65,1.399 -11.816,1.855c-4.167,0.456 -8.268,0.684 -12.305,0.684c-4.297,-0 -8.105,-0.13 -11.426,-0.391c-3.32,-0.26 -6.347,-0.618 -9.082,-1.074c-2.734,-0.456 -5.241,-0.977 -7.519,-1.563c-2.279,-0.585 -4.59,-1.139 -6.934,-1.66c-1.041,1.042 -1.562,2.539 -1.562,4.492c-0,1.823 1.204,3.256 3.613,4.297c2.409,1.042 6.738,2.149 12.988,3.321l0,98.047c-4.427,2.864 -8.919,5.175 -13.476,6.933c-4.558,1.758 -9.017,3.125 -13.379,4.102c-4.362,0.976 -8.529,1.627 -12.5,1.953c-3.972,0.325 -7.65,0.488 -11.035,0.488c-7.292,0 -14.128,-0.683 -20.508,-2.051c-6.38,-1.367 -11.947,-3.45 -16.699,-6.25c-4.753,-2.799 -8.497,-6.347 -11.231,-10.644c-2.734,-4.297 -4.101,-9.44 -4.101,-15.43l-0,-100.586c-3.907,-5.469 -6.804,-11.653 -8.692,-18.555c-1.888,-6.901 -2.832,-14.127 -2.832,-21.679c0,-6.25 0.944,-13.151 2.832,-20.703c1.888,-7.552 4.785,-14.258 8.692,-20.118l29.882,0Z" style="fill:#fff;fill-rule:nonzero;"/><path d="M1993.24,378.505c5.469,0 10.059,0.977 13.769,2.93c3.711,1.953 6.999,4.427 9.864,7.422c-5.729,5.339 -8.594,9.766 -8.594,13.281c0,1.563 0.521,2.963 1.563,4.2c1.041,1.236 2.799,1.855 5.273,1.855c2.604,-4.557 5.859,-8.854 9.766,-12.891c3.906,-4.036 8.528,-7.584 13.867,-10.644c5.338,-3.06 11.426,-5.501 18.261,-7.324c6.836,-1.823 14.486,-2.735 22.95,-2.735c6.51,0 12.532,0.781 18.066,2.344c5.534,1.562 10.514,3.581 14.942,6.055c4.427,2.474 8.203,5.175 11.328,8.105c3.125,2.93 5.599,5.827 7.422,8.692c3.125,-4.167 6.77,-7.846 10.937,-11.036c4.167,-3.19 8.626,-5.826 13.379,-7.91c4.753,-2.083 9.733,-3.646 14.941,-4.687c5.209,-1.042 10.352,-1.563 15.43,-1.563c11.979,0 22.559,1.888 31.738,5.664c9.18,3.776 16.895,9.213 23.145,16.309c6.25,7.096 11.002,15.69 14.258,25.781c3.255,10.091 4.882,21.452 4.882,34.082c0,5.86 -0.13,12.24 -0.39,19.141c-0.261,6.901 -0.391,13.476 -0.391,19.726c0,8.985 0.977,16.569 2.93,22.754c1.953,6.185 5.664,10.97 11.133,14.356c0.13,1.041 0.195,2.148 0.195,3.32l0,2.93c0,9.245 -1.465,17.415 -4.395,24.511c-2.929,7.097 -6.868,13.054 -11.816,17.872c-4.948,4.817 -10.742,8.431 -17.383,10.839c-6.64,2.409 -13.672,3.614 -21.093,3.614c-7.813,-0 -15.267,-1.042 -22.364,-3.125c-7.096,-2.084 -13.346,-5.534 -18.75,-10.352c-5.403,-4.818 -9.7,-11.133 -12.89,-18.945c-3.19,-7.813 -4.786,-17.448 -4.786,-28.906l0,-61.719c0,-8.724 -2.864,-13.086 -8.593,-13.086c-0.912,-0 -1.888,0.163 -2.93,0.488c-1.042,0.326 -1.823,0.684 -2.344,1.074l3.516,29.102l-0,44.141c-0,8.463 0.651,16.048 1.953,22.753c1.302,6.706 3.581,12.533 6.836,17.481c-6.38,6.771 -14.225,11.979 -23.535,15.625c-9.31,3.646 -18.718,5.469 -28.223,5.469c-6.901,-0 -13.476,-0.847 -19.726,-2.539c-6.25,-1.693 -11.784,-4.623 -16.602,-8.789c-4.818,-4.167 -8.626,-9.766 -11.426,-16.797c-2.799,-7.032 -4.199,-15.821 -4.199,-26.368l0,-68.554c0,-8.724 -2.865,-13.086 -8.594,-13.086c-0.911,-0 -1.888,0.163 -2.929,0.488c-1.042,0.326 -1.823,0.684 -2.344,1.074l3.515,29.102l0,51.758c0,7.031 0.359,13.183 1.075,18.457c0.716,5.273 2.311,10.384 4.785,15.332c-5.729,5.989 -13.184,10.775 -22.363,14.355c-9.18,3.581 -19.629,5.371 -31.348,5.371c-6.12,0 -12.207,-0.846 -18.262,-2.539c-6.055,-1.692 -11.491,-4.297 -16.308,-7.812c-4.818,-3.516 -8.724,-7.91 -11.719,-13.184c-2.995,-5.273 -4.492,-11.556 -4.492,-18.847l-0,-93.36c-3.907,-5.469 -6.804,-11.653 -8.692,-18.555c-1.888,-6.901 -2.832,-14.127 -2.832,-21.679c0,-6.25 0.944,-13.151 2.832,-20.703c1.888,-7.552 4.785,-14.258 8.692,-20.118l47.07,0Z" style="fill:#fff;fill-rule:nonzero;"/><path d="M2392.34,504.873c-2.994,-0 -5.11,0.748 -6.347,2.246c-1.237,1.497 -1.856,3.222 -1.856,5.176c0,2.604 0.944,4.427 2.832,5.468c1.888,1.042 4.134,1.563 6.739,1.563c4.166,-0 7.356,-1.042 9.57,-3.125c2.213,-2.084 3.32,-5.86 3.32,-11.328l-14.258,-0Zm101.368,-9.571c-0,8.985 0.976,16.407 2.929,22.266c1.953,5.859 5.664,10.482 11.133,13.867c0.13,1.042 0.195,2.311 0.195,3.809l0,3.418c0,9.896 -1.562,18.424 -4.687,25.586c-3.125,7.161 -7.194,13.053 -12.207,17.675c-5.013,4.623 -10.71,8.041 -17.09,10.254c-6.38,2.214 -12.891,3.321 -19.531,3.321c-4.688,-0 -9.278,-0.554 -13.77,-1.66c-4.492,-1.107 -8.724,-2.767 -12.695,-4.981c-3.971,-2.213 -7.552,-5.046 -10.742,-8.496c-3.19,-3.451 -5.697,-7.52 -7.52,-12.207c-2.213,-0 -3.873,0.586 -4.98,1.758c-1.107,1.172 -1.66,2.734 -1.66,4.687c-0,1.823 0.586,3.776 1.757,5.86c1.172,2.083 2.865,4.231 5.079,6.445c-4.167,2.865 -9.766,5.013 -16.797,6.445c-7.032,1.433 -14.193,2.149 -21.485,2.149c-11.849,-0 -22.623,-1.628 -32.324,-4.883c-9.7,-3.255 -18.034,-8.073 -25,-14.453c-6.966,-6.38 -12.37,-14.16 -16.211,-23.34c-3.841,-9.18 -5.762,-19.759 -5.762,-31.738c0,-12.37 2.051,-23.08 6.153,-32.129c4.101,-9.05 9.668,-16.537 16.699,-22.461c7.031,-5.925 15.202,-10.319 24.512,-13.184c9.31,-2.864 19.173,-4.297 29.59,-4.297c4.687,0 8.854,0.163 12.5,0.489c3.645,0.325 6.77,0.683 9.375,1.074c2.994,0.521 5.533,1.041 7.617,1.562c0.39,-1.302 0.586,-2.409 0.586,-3.32c-0,-1.693 -0.879,-3.125 -2.637,-4.297c-1.758,-1.172 -4.069,-2.051 -6.934,-2.637c-2.864,-0.586 -6.185,-1.009 -9.961,-1.269c-3.776,-0.261 -7.617,-0.391 -11.523,-0.391c-8.854,0 -17.708,0.977 -26.562,2.93c-8.855,1.953 -16.797,4.948 -23.829,8.984c-2.864,-4.817 -5.175,-10.937 -6.933,-18.359c-1.758,-7.422 -2.637,-14.974 -2.637,-22.656c0,-3.646 0.228,-7.325 0.684,-11.035c0.455,-3.711 1.399,-6.999 2.832,-9.864c3.385,-1.562 7.715,-3.288 12.988,-5.176c5.273,-1.888 11.393,-3.645 18.359,-5.273c6.966,-1.628 14.649,-3.027 23.047,-4.199c8.399,-1.172 17.416,-1.758 27.051,-1.758c16.797,-0 31.478,1.888 44.043,5.664c12.565,3.776 23.014,9.212 31.348,16.309c8.333,7.096 14.583,15.82 18.75,26.172c4.166,10.351 6.25,22.037 6.25,35.058l-0,38.281Z" style="fill:#fff;fill-rule:nonzero;"/><path d="M2543.59,468.545l12.11,-0c3.385,-0 5.859,-0.586 7.422,-1.758c1.562,-1.172 2.343,-2.735 2.343,-4.688c0,-0.781 -0.13,-1.562 -0.39,-2.344l-43.75,0c-1.433,-4.687 -2.507,-9.863 -3.223,-15.527c-0.716,-5.664 -1.074,-11.426 -1.074,-17.285c-0,-3.776 0.228,-8.105 0.683,-12.988c0.456,-4.883 1.075,-8.952 1.856,-12.207c5.469,-3.386 10.905,-7.032 16.309,-10.938c5.403,-3.906 10.188,-7.422 14.355,-10.547c1.172,-2.734 2.539,-6.315 4.102,-10.742c1.562,-4.427 3.125,-9.049 4.687,-13.867c1.563,-4.818 3.06,-9.473 4.492,-13.965c1.433,-4.492 2.67,-8.236 3.711,-11.23c4.167,-1.042 9.701,-1.954 16.602,-2.735c6.901,-0.781 13.932,-1.172 21.093,-1.172c5.599,0 11.231,0.326 16.895,0.977c5.664,0.651 11.882,1.693 18.652,3.125l0,47.851l33.789,0c3.776,5.73 6.608,12.142 8.497,19.239c1.888,7.096 2.832,14.16 2.832,21.191c-0,6.641 -0.944,13.705 -2.832,21.192c-1.889,7.487 -4.721,13.964 -8.497,19.433l-27.929,0l-0,29.492c-0,8.985 1.823,15.397 5.468,19.239c3.646,3.841 8.79,5.761 15.43,5.761l8.399,0c1.041,3.907 1.985,8.073 2.832,12.5c0.846,4.427 1.269,8.855 1.269,13.282c0,18.099 -5.664,31.901 -16.992,41.406c-11.328,9.505 -27.474,14.258 -48.438,14.258c-10.546,-0 -20.149,-1.433 -28.808,-4.297c-8.659,-2.865 -16.113,-7.227 -22.363,-13.086c-6.25,-5.86 -11.068,-13.184 -14.454,-21.973c-3.385,-8.789 -5.078,-19.173 -5.078,-31.152l0,-56.445Z" style="fill:#fff;fill-rule:nonzero;"/><path d="M2710.85,404.091c2.604,-1.692 5.208,-3.059 7.812,-4.101c2.605,-1.042 5.404,-2.344 8.399,-3.906c-2.474,-1.302 -5.013,-3.125 -7.617,-5.469c-2.605,-2.344 -4.981,-5.176 -7.129,-8.496c-2.149,-3.321 -3.907,-7.129 -5.274,-11.426c-1.367,-4.297 -2.05,-9.115 -2.05,-14.453c-0,-8.333 1.464,-15.918 4.394,-22.754c2.93,-6.836 6.934,-12.695 12.012,-17.578c5.078,-4.883 11.002,-8.692 17.773,-11.426c6.771,-2.734 14.063,-4.102 21.875,-4.102c7.943,0 15.267,1.433 21.973,4.297c6.706,2.865 12.532,6.771 17.48,11.719c4.948,4.948 8.822,10.84 11.621,17.676c2.8,6.836 4.2,14.225 4.2,22.168c-0,6.771 -1.14,13.053 -3.418,18.848c-2.279,5.794 -5.306,10.97 -9.082,15.527c-3.776,4.557 -8.203,8.366 -13.282,11.426c-5.078,3.06 -10.351,5.175 -15.82,6.347c0,1.953 0.423,3.679 1.27,5.176c0.846,1.497 2.311,2.246 4.394,2.246c6.511,0 13.281,-2.604 20.313,-7.812c0.39,0.26 1.041,0.716 1.953,1.367c0.911,0.651 1.888,1.432 2.929,2.344c1.042,0.911 2.019,1.79 2.93,2.636c0.912,0.847 1.498,1.465 1.758,1.856l-0,77.344c-0,8.984 0.977,16.699 2.93,23.144c1.953,6.445 5.664,11.361 11.132,14.746c0.131,1.042 0.196,2.311 0.196,3.809l-0,3.418c-0,9.896 -1.367,18.424 -4.102,25.586c-2.734,7.161 -6.575,13.053 -11.523,17.675c-4.948,4.623 -10.84,8.041 -17.676,10.254c-6.836,2.214 -14.29,3.321 -22.363,3.321c-6.25,-0 -12.793,-1.042 -19.629,-3.125c-6.836,-2.084 -13.086,-5.599 -18.75,-10.547c-5.664,-4.948 -10.352,-11.556 -14.063,-19.824c-3.711,-8.269 -5.566,-18.588 -5.566,-30.957l-0,-126.954Z" style="fill:#fff;fill-rule:nonzero;"/><path d="M2953.7,598.037c-17.187,-0 -32.617,-2.767 -46.289,-8.301c-13.672,-5.534 -25.325,-13.314 -34.961,-23.34c-9.635,-10.026 -17.024,-22.135 -22.168,-36.328c-5.143,-14.193 -7.714,-29.948 -7.714,-47.266c-0,-18.619 3.125,-34.895 9.375,-48.828c6.25,-13.932 14.518,-25.488 24.804,-34.668c10.287,-9.179 22.038,-16.048 35.254,-20.605c13.216,-4.557 26.856,-6.836 40.918,-6.836c13.151,-0 25.456,1.66 36.914,4.98c11.459,3.321 21.419,8.171 29.883,14.551c8.464,6.38 15.137,14.16 20.02,23.34c4.882,9.18 7.324,19.694 7.324,31.543c-0,7.943 -1.302,15.202 -3.906,21.777c-2.605,6.576 -6.25,12.24 -10.938,16.992c-4.687,4.753 -10.319,8.431 -16.895,11.036c-6.575,2.604 -13.834,3.906 -21.777,3.906c-6.64,-0 -12.728,-0.912 -18.262,-2.735c-5.533,-1.822 -10.351,-4.394 -14.453,-7.714c-4.101,-3.321 -7.454,-7.292 -10.058,-11.914c-2.604,-4.623 -4.297,-9.733 -5.078,-15.332c-2.474,-0 -4.525,0.423 -6.153,1.269c-1.627,0.846 -2.441,2.507 -2.441,4.981c-0,4.166 1.204,8.593 3.613,13.281c2.409,4.687 5.892,9.017 10.449,12.988c4.558,3.971 10.222,7.292 16.993,9.961c6.77,2.669 14.583,4.004 23.437,4.004c9.505,-0 17.48,-1.042 23.926,-3.125c6.445,-2.083 11.751,-4.492 15.918,-7.227c2.734,4.167 5.045,9.245 6.933,15.235c1.888,5.989 2.832,13.086 2.832,21.289c0,7.552 -1.79,15.071 -5.371,22.558c-3.58,7.487 -8.984,14.226 -16.211,20.215c-7.226,5.99 -16.308,10.873 -27.246,14.649c-10.937,3.776 -23.828,5.664 -38.672,5.664Z" style="fill:#fff;fill-rule:nonzero;"/><path d="M421.762,168.544c-58.249,47.197 -163.932,161.794 -162.459,354.638c1.475,193.99 266.727,143.771 257.821,-4.192c-0,32.382 -18.717,60.472 -45.908,74.023l-0.01,-0.016c-116.55,50.97 -216.695,-86.773 -61.453,-315.636c108.612,-160.118 249.972,-63.574 312.105,92.239l0.016,-0.009c-16.944,-44.629 -41.314,-89.272 -72.662,-135.152l-0,0.027c-43.493,-52.475 -92.389,-98.088 -147.674,-98.093c-25.23,-0.002 -51.785,9.494 -79.776,32.171Z" style="fill:url(#_Linear1);fill-rule:nonzero;"/><path d="M285.809,147.892c-102.545,123.384 -160.606,233.499 -166.483,351.366l0.025,0.005c-3.651,178.444 118.074,268.643 226.828,274.148c167.509,8.476 246.619,-123.111 239.558,-246.202c-6.556,-114.139 -65.99,-185.026 -114.431,-231.452c-12.235,10.174 -24.519,23.2 -36.73,39.362c19.529,25.74 35.34,49.439 47.697,71.49l-0.006,0c154.331,260.523 -136.718,390.944 -252.085,237.586c-105.297,-139.978 28.533,-401.403 129.605,-496.978c89.625,-84.748 151.484,-71.123 220.67,-2.769l0.009,0.004c-44.017,-58.579 -92.818,-88.079 -142.78,-88.081c-50.687,-0.001 -102.57,30.36 -151.877,91.521Z" style="fill:url(#_Linear2);fill-rule:nonzero;"/><path d="M526.13,268.139c47.299,68.391 145.196,192.106 97.752,369.649c-41.927,156.914 -209.386,201.679 -319.192,169.231c41.692,12.321 83.582,27.896 129.886,27.896c40.645,0 79.502,-7.682 115.187,-21.671c110.053,-53.959 158.942,-162.944 158.18,-277.923c-0.887,-133.07 -71.512,-270.06 -159.637,-270.068c-7.284,-0.001 -14.681,0.935 -22.176,2.886Z" style="fill:url(#_Linear3);fill-rule:nonzero;"/><path d="M355.45,142.801c-101.072,95.576 -237.812,352.419 -125.359,505.455c113.604,154.612 406.274,18.758 252.182,-241.647c23.882,42.648 34.851,79.154 34.851,112.381c8.906,147.963 -256.346,198.182 -257.821,4.192c-1.473,-192.844 104.21,-307.441 162.459,-354.638c89.328,-72.368 164.108,-10.5 227.45,65.922l0.016,0c-20.123,-29.445 -43.111,-59.402 -68.853,-90.191l-0.017,-0.005c-32.773,-39.54 -67.855,-61.244 -106.49,-61.246c-36.037,-0.003 -75.165,18.877 -118.418,59.777Z" style="fill:url(#_Linear4);fill-rule:nonzero;"/><path d="M471.306,295.757c42.209,47.591 103.638,117.313 110.194,231.452c7.061,123.091 -67.812,250.441 -235.321,241.964c-108.754,-5.505 -226.828,-96.068 -226.828,-269.91l-0.025,-0.005c-0.331,6.611 -0.497,13.245 -0.497,19.91c-0,123.603 71.016,230.618 174.479,282.462l0.009,-0.02c101.701,53.738 288.638,11.634 334.803,-163.822c46.769,-177.72 -46.165,-306.564 -101.99,-369.649l-0,-0.016c-17.88,3.352 -36.298,12.226 -54.824,27.634Z" style="fill:url(#_Linear5);fill-rule:nonzero;"/><path d="M409.852,277.539c-146.555,216.049 -65.51,350.861 42.076,322.407c-5.604,1.204 -11.399,1.866 -17.352,1.866c-45.568,0 -82.645,-37.076 -82.645,-82.644c-0,-50.446 25.289,-108.448 82.645,-184.049c129.97,-172.013 267.87,11.559 269.128,200.202c0.763,114.979 -43.888,223.964 -153.941,277.923c117.412,-46.025 200.562,-160.341 200.562,-294.076c-0,-50.897 -9.66,-100.149 -28.367,-149.415l-0.009,0.025c-39.611,-99.333 -111.435,-174.577 -186.43,-174.589c-42.642,-0.007 -86.296,24.309 -125.667,82.35Z" style="fill:url(#_Linear6);fill-rule:nonzero;"/></g><defs><linearGradient id="_Linear1" x1="0" y1="0" x2="1" y2="0" gradientUnits="userSpaceOnUse" gradientTransform="matrix(464.95,-389.738,389.738,464.95,266.975,543.577)"><stop offset="0" style="stop-color:#70f;stop-opacity:1"/><stop offset="1" style="stop-color:#e369ff;stop-opacity:1"/></linearGradient><linearGradient id="_Linear2" x1="0" y1="0" x2="1" y2="0" gradientUnits="userSpaceOnUse" gradientTransform="matrix(310.341,-666.813,666.813,310.341,224.594,788.57)"><stop offset="0" style="stop-color:#00e4eb;stop-opacity:1"/><stop offset="1" style="stop-color:#00a6ff;stop-opacity:1"/></linearGradient><linearGradient id="_Linear3" x1="0" y1="0" x2="1" y2="0" gradientUnits="userSpaceOnUse" gradientTransform="matrix(236.365,-619.441,619.441,236.365,423.981,921.975)"><stop offset="0" style="stop-color:#ff7b00;stop-opacity:1"/><stop offset="1" style="stop-color:#fd0;stop-opacity:1"/></linearGradient><linearGradient id="_Linear4" x1="0" y1="0" x2="1" y2="0" gradientUnits="userSpaceOnUse" gradientTransform="matrix(377.202,-625.139,625.139,377.202,240.022,685.886)"><stop offset="0" style="stop-color:#1f88ff;stop-opacity:1"/><stop offset="1" style="stop-color:#7041f2;stop-opacity:1"/></linearGradient><linearGradient id="_Linear5" x1="0" y1="0" x2="1" y2="0" gradientUnits="userSpaceOnUse" gradientTransform="matrix(285.463,-505.244,505.244,285.463,251.809,793.369)"><stop offset="0" style="stop-color:#2f9e00;stop-opacity:1"/><stop offset="1" style="stop-color:#96ed32;stop-opacity:1"/></linearGradient><linearGradient id="_Linear6" x1="0" y1="0" x2="1" y2="0" gradientUnits="userSpaceOnUse" gradientTransform="matrix(325.069,-227.042,227.042,325.069,424.389,579.36)"><stop offset="0" style="stop-color:#db256f;stop-opacity:1"/><stop offset="1" style="stop-color:#ff75ff;stop-opacity:1"/></linearGradient></defs></svg>